<?xml version="1.0" standalone="no"?>
<!DOCTYPE svg PUBLIC "-//W3C//DTD SVG 20010904//EN"
 "http://www.w3.org/TR/2001/REC-SVG-20010904/DTD/svg10.dtd">
<svg version="1.0" xmlns="http://www.w3.org/2000/svg"
 width="454.000000pt" height="374.000000pt" viewBox="0 0 454.000000 374.000000"
 preserveAspectRatio="xMidYMid meet">

<g transform="translate(0.000000,374.000000) scale(0.100000,-0.100000)"
fill="#000000" stroke="none">
<path d="M2870 3405 c-27 -44 -59 -91 -71 -105 l-21 -25 18 30 c9 17 38 60 62
98 25 37 43 69 40 72 -2 3 -40 -2 -84 -9 -263 -47 -514 -164 -766 -358 -188
-146 -529 -502 -543 -569 -9 -42 15 -74 79 -106 l54 -26 -146 -181 c-80 -99
-156 -205 -170 -235 -36 -79 -40 -173 -12 -286 26 -107 29 -113 45 -92 10 13
8 29 -8 74 -10 32 -22 95 -25 140 -4 78 -3 87 26 145 29 59 189 268 285 373
l42 46 42 -18 c24 -10 43 -21 43 -24 0 -4 -18 -19 -40 -34 -56 -38 -155 -146
-202 -219 -41 -63 -72 -151 -66 -188 5 -40 18 -25 47 57 23 67 71 164 71 144
0 -3 -9 -41 -20 -84 -35 -138 -22 -217 29 -171 18 17 19 16 26 -24 4 -24 15
-46 26 -53 29 -18 23 -26 -15 -20 -21 3 -46 -1 -65 -10 -30 -15 -30 -15 -41
19 -6 18 -9 38 -6 43 3 5 -2 12 -11 15 -40 16 -37 -43 9 -169 41 -116 95 -209
262 -451 140 -204 174 -244 184 -216 2 8 11 3 22 -10 13 -17 15 -27 8 -36 -6
-7 -8 -15 -5 -18 27 -27 245 -32 368 -8 165 31 343 122 424 216 60 70 43 79
-34 17 -31 -25 -57 -39 -67 -35 -21 8 -9 46 19 65 47 32 135 130 148 164 14
41 17 43 43 24 17 -12 16 -16 -13 -62 -20 -31 -28 -52 -21 -59 31 -31 155 175
225 379 32 93 45 240 25 299 -6 20 -31 63 -56 96 -24 33 -44 63 -44 66 0 3 26
4 58 2 l57 -3 7 -100 c5 -55 15 -165 23 -245 22 -212 24 -198 -51 -319 -88
-141 -146 -223 -207 -295 -58 -67 -58 -68 24 -135 46 -37 55 -51 59 -84 6 -51
30 -63 30 -15 0 46 17 103 35 118 21 17 29 6 15 -20 -24 -45 2 -31 62 33 65
69 88 81 88 48 0 -10 3 -33 6 -50 5 -25 3 -31 -10 -31 -9 0 -26 -15 -37 -32
-18 -29 -20 -45 -16 -143 7 -163 55 -295 108 -295 25 0 24 5 -11 48 -48 61
-94 270 -55 256 8 -4 15 -18 15 -34 0 -15 9 -35 20 -45 13 -12 20 -31 20 -57
0 -51 21 -100 54 -126 16 -12 22 -23 16 -27 -16 -10 -12 -25 6 -25 24 0 10
-58 -21 -90 -21 -21 -33 -24 -80 -22 -60 3 -73 -12 -27 -29 78 -30 151 19 173
118 10 45 16 53 35 53 13 0 39 14 59 31 31 28 36 37 33 71 -4 50 -17 52 -33 5
-14 -40 -39 -66 -66 -67 -14 0 -17 22 -23 153 -4 83 -7 164 -7 178 1 32 -27
59 -71 68 -33 7 -33 8 -36 68 l-3 61 36 4 c32 4 40 0 66 -33 16 -21 40 -61 54
-91 32 -71 82 -246 97 -340 10 -67 9 -85 -7 -145 -16 -58 -26 -76 -71 -119
-59 -58 -143 -104 -190 -104 -74 0 -201 82 -336 217 -95 94 -116 94 -43 0 55
-69 187 -176 264 -213 84 -40 138 -43 208 -8 76 36 156 113 181 172 43 100 39
163 -25 397 -42 156 -62 203 -110 255 -32 36 -40 40 -83 40 l-47 0 -6 53 c-3
28 -11 120 -18 204 l-12 152 31 48 c59 93 92 170 92 217 0 49 -26 126 -42 126
-5 0 -7 -6 -4 -12 25 -61 29 -91 18 -136 -11 -49 -80 -182 -94 -182 -4 0 -8
17 -8 38 0 44 -38 389 -46 415 -3 10 1 20 10 23 11 4 29 -8 55 -37 43 -49 66
-48 31 1 -13 18 -19 35 -14 40 5 4 45 11 89 14 115 9 307 51 434 94 108 37
110 39 147 92 20 30 45 64 57 75 11 11 1 -6 -23 -38 -23 -32 -39 -61 -36 -65
15 -15 231 112 341 201 44 35 108 93 143 127 55 55 62 67 62 101 0 31 -8 48
-37 81 -63 73 -166 178 -206 210 -37 30 -38 30 -60 12 l-21 -19 16 26 17 26
-62 49 c-90 72 -163 124 -173 124 -5 0 -33 -40 -63 -88 -69 -109 -91 -139 -91
-120 0 8 30 61 66 118 54 85 63 105 52 116 -13 13 -240 134 -251 134 -3 0 -25
-27 -47 -60 -22 -33 -43 -60 -46 -60 -7 0 1 13 45 73 41 58 46 54 -104 102
-151 48 -261 66 -420 68 l-135 3 -50 -81z m295 -142 c-32 -76 -134 -248 -142
-239 -2 2 14 32 37 67 23 35 57 97 77 137 39 77 53 96 28 35z m-661 -55 c-15
-29 -50 -93 -79 -143 -28 -49 -73 -128 -100 -175 -26 -47 -52 -89 -58 -95 -9
-10 88 179 104 200 4 6 29 53 57 105 67 128 86 160 95 160 4 0 -5 -24 -19 -52z
m1016 2 c-6 -11 -13 -20 -16 -20 -2 0 0 9 6 20 6 11 13 20 16 20 2 0 0 -9 -6
-20z m-769 -229 c-28 -56 -53 -101 -56 -101 -6 0 3 20 55 122 24 48 46 86 48
84 2 -2 -20 -49 -47 -105z m489 -130 c-28 -56 -35 -52 -8 4 12 24 23 43 26 41
2 -2 -6 -22 -18 -45z m-570 -30 c-11 -23 -23 -41 -26 -41 -6 0 -6 -1 21 52 11
21 21 36 23 34 2 -2 -6 -22 -18 -45z m-320 -211 c-50 -100 -93 -180 -96 -177
-3 2 31 76 74 163 82 165 104 205 110 200 1 -2 -38 -86 -88 -186z m-436 30
c-31 -61 -59 -108 -61 -106 -7 7 102 216 114 216 2 0 -21 -50 -53 -110z m1860
38 c-46 -63 -101 -145 -114 -167 -5 -9 -11 -13 -15 -10 -10 11 144 229 163
229 2 0 -13 -24 -34 -52z m-866 -65 c-55 -101 -78 -140 -78 -130 0 20 105 207
117 207 2 0 -15 -35 -39 -77z m1230 -20 c-9 -10 -46 -56 -83 -103 -81 -102
-100 -122 -54 -57 44 64 138 177 146 177 3 0 -1 -8 -9 -17z m-2160 -320 c156
-52 173 -59 168 -78 -2 -11 -10 -46 -16 -77 -13 -64 -22 -71 -42 -32 -12 26
-33 31 -33 8 0 -5 -16 -30 -34 -53 l-34 -43 -29 30 c-17 19 -25 37 -22 46 7
17 -4 21 -22 8 -6 -4 -27 -38 -45 -76 -19 -38 -42 -74 -51 -80 -28 -17 -57 20
-65 83 -7 58 -19 53 -21 -10 -2 -43 -49 -156 -75 -177 -14 -12 -16 -8 -23 35
-4 26 -8 74 -8 106 1 31 -2 57 -6 57 -9 0 -20 -50 -20 -89 -1 -24 -30 -71 -44
-71 -11 0 -6 64 10 129 30 118 76 201 146 265 35 31 68 61 73 66 14 13 4 15
193 -47z m1462 27 c-6 -11 -13 -20 -16 -20 -2 0 0 9 6 20 6 11 13 20 16 20 2
0 0 -9 -6 -20z m-27 -45 c-3 -9 -8 -14 -10 -11 -3 3 -2 9 2 15 9 16 15 13 8
-4z m-969 -104 c15 -6 29 -34 52 -101 l32 -93 -34 -32 c-122 -116 -54 -335
104 -335 124 0 211 104 182 218 -21 83 -106 161 -178 162 -16 0 -21 4 -15 13
4 6 10 32 13 57 l6 45 17 -52 c10 -28 25 -57 32 -63 22 -18 45 -4 46 27 1 26
1 26 10 -7 18 -67 31 -90 50 -90 21 0 39 28 39 61 0 12 3 19 6 16 8 -7 19
-288 19 -457 0 -99 -4 -122 -24 -167 -44 -99 -160 -185 -295 -219 -71 -18 -89
-35 -31 -29 19 2 35 -1 35 -7 0 -5 6 -8 13 -5 6 2 11 10 10 16 -2 6 0 11 5 12
4 0 15 2 24 4 9 2 19 -3 22 -11 3 -8 0 -13 -6 -11 -7 1 -12 -3 -13 -10 0 -14
-55 -58 -55 -44 0 18 -14 12 -29 -11 -13 -21 -13 -22 2 -10 11 9 21 11 33 4
20 -11 16 -14 -66 -40 -123 -39 -249 -55 -353 -43 -73 8 -111 31 -89 53 9 9
12 9 12 -2 0 -10 4 -8 13 4 13 17 15 17 45 2 18 -9 32 -14 32 -11 0 3 10 1 21
-6 17 -9 23 -8 30 2 15 23 11 28 -43 46 -53 19 -118 70 -118 94 0 8 9 4 21
-11 11 -14 17 -19 13 -11 -5 11 -2 13 17 8 13 -4 27 -7 31 -7 4 0 5 -7 2 -15
-4 -8 -10 -12 -15 -9 -5 3 -9 0 -9 -5 0 -16 16 -13 30 4 8 9 29 15 55 15 34 0
46 -5 59 -24 8 -14 25 -27 36 -31 11 -4 18 -11 15 -16 -3 -5 1 -6 9 -3 9 3 30
1 48 -5 17 -6 28 -8 25 -4 -4 4 7 12 24 17 36 12 79 74 56 81 -6 2 -75 6 -152
8 -199 7 -305 44 -389 137 -73 81 -81 112 -81 315 0 206 6 247 39 268 l24 16
-8 -36 c-17 -71 39 -181 106 -209 122 -51 267 49 250 173 -3 24 -14 61 -25 83
-19 39 -19 40 4 102 12 35 28 91 35 125 l14 61 94 0 c53 0 104 -3 116 -7z
m133 -63 c-3 -7 -5 -2 -5 12 0 14 2 19 5 13 2 -7 2 -19 0 -25z m73 6 c0 -9 -5
-14 -12 -12 -18 6 -21 28 -4 28 9 0 16 -7 16 -16z m308 -37 c30 -29 32 -35 32
-96 0 -94 -13 -106 -39 -37 -11 31 -21 68 -21 81 0 45 -17 35 -23 -13 -3 -26
-11 -60 -18 -75 l-13 -28 -33 72 c-18 39 -33 83 -33 96 0 33 -20 19 -21 -15 0
-15 -6 -45 -13 -67 l-12 -40 -27 73 c-15 40 -27 77 -27 82 0 6 43 7 108 4 102
-6 109 -8 140 -37z m-863 -95 c-1 -1 -14 2 -28 9 -23 10 -24 14 -14 36 l11 24
17 -33 c9 -18 16 -34 14 -36z m-160 17 c4 -11 5 -21 3 -22 -1 -1 -15 -13 -30
-25 l-26 -24 16 46 c19 51 27 57 37 25z m1127 -147 c-2 -94 -6 -102 -53 -102
l-39 0 0 55 c0 41 4 55 15 55 15 0 35 56 35 105 l1 30 21 -40 c15 -29 21 -56
20 -103z m-1012 124 c0 -3 -4 -8 -10 -11 -5 -3 -10 -1 -10 4 0 6 5 11 10 11 6
0 10 -2 10 -4z m-75 -26 c3 -5 -1 -20 -9 -32 -9 -12 -16 -40 -16 -61 0 -88
108 -131 171 -68 34 35 36 47 9 56 -29 9 -43 40 -30 65 16 29 26 25 57 -22 35
-53 38 -132 7 -175 -26 -36 -99 -73 -142 -73 -108 0 -188 140 -137 241 32 64
74 95 90 69z m539 -36 c-20 -47 -10 -87 28 -119 52 -44 126 -29 157 32 10 19
8 23 -16 35 -29 14 -40 43 -24 67 14 21 54 -11 86 -70 42 -78 26 -148 -47
-202 -37 -27 -116 -34 -159 -13 -100 47 -119 196 -37 284 28 29 30 28 12 -14z
m425 -158 c10 -12 8 -17 -9 -26 -26 -14 -31 -11 -23 18 6 26 16 28 32 8z
m-1295 -7 c52 -14 126 -83 126 -118 l0 -26 -22 32 c-28 39 -94 83 -125 83 -27
0 -73 -20 -73 -32 0 -4 -4 -8 -10 -8 -5 0 -10 11 -10 24 0 17 9 28 33 40 39
19 33 18 81 5z m1390 -25 c25 -10 6 -34 -28 -34 -35 0 -63 -16 -118 -69 l-38
-35 0 26 c0 65 118 137 184 112z m-1384 -39 c14 -8 19 -14 13 -15 -7 0 -20
-11 -29 -25 -34 -52 31 -145 102 -145 31 0 34 -3 34 -29 0 -22 -7 -31 -28 -40
-60 -25 -88 1 -161 146 -36 72 -37 80 -14 105 19 21 49 23 83 3z m1376 -40
c-3 -13 -11 -37 -18 -52 -11 -27 -12 -27 -15 -6 -3 13 -13 29 -24 37 -20 14
-20 14 3 30 12 9 31 16 41 16 15 0 18 -5 13 -25z m-1315 -5 c12 -7 19 -21 19
-41 0 -17 6 -32 15 -35 25 -10 17 -34 -10 -34 -55 0 -113 71 -85 105 15 18 34
19 61 5z m1249 -57 c0 -53 -56 -109 -89 -88 -18 11 -12 32 10 38 17 5 21 12
17 36 -3 23 0 32 16 39 29 13 46 4 46 -25z m-12 -123 c-32 -62 -49 -71 -82
-47 -30 22 -16 51 27 58 21 3 48 16 60 28 12 11 23 21 24 21 2 0 -11 -27 -29
-60z m231 -160 c9 -133 9 -146 -7 -157 -9 -7 -35 -25 -57 -42 -22 -16 -53 -31
-70 -33 -21 -2 -36 -13 -50 -35 -11 -18 -23 -32 -27 -33 -3 0 -29 18 -58 41
l-51 40 31 37 c50 60 141 190 205 291 57 92 59 94 66 65 4 -16 12 -94 18 -174z
m-1394 73 c21 -72 98 -164 155 -186 13 -5 13 -6 0 -6 -8 -1 -28 -8 -44 -16
-16 -9 -33 -12 -36 -8 -20 23 -170 242 -170 249 0 4 3 5 6 2 3 -3 17 -2 32 2
39 12 44 9 57 -37z m835 -218 c-7 -8 -17 -15 -23 -15 -6 0 -2 7 9 15 25 19 30
19 14 0z m-656 -24 c3 -5 -1 -14 -8 -20 -10 -8 -13 -25 -10 -49 3 -30 -3 -34
-9 -5 -1 4 -12 18 -25 32 -17 18 -19 26 -10 32 7 5 16 3 20 -4 5 -8 8 -6 8 6
0 18 25 24 34 8z m416 -21 c0 -33 -107 -37 -139 -6 -14 15 -8 16 62 16 43 0
77 -4 77 -10z m-367 -57 c-3 -7 -9 -13 -13 -13 -11 0 -21 30 -15 41 8 13 33
-13 28 -28z m1303 -94 c14 -12 14 -14 -2 -26 -36 -27 -94 -6 -94 34 0 12 8 15
40 10 23 -3 48 -11 56 -18z m-112 -15 c9 -8 16 -31 16 -50 0 -27 -4 -34 -20
-34 -23 0 -36 37 -26 75 7 29 10 30 30 9z m126 -60 c0 -12 -9 -14 -42 -12 -59
4 -63 28 -4 28 35 0 46 -4 46 -16z m-12 -53 c-4 -20 -73 -28 -94 -10 -24 20 0
35 51 31 36 -3 45 -8 43 -21z m-62 -41 c8 0 14 -4 14 -10 0 -16 -36 -11 -51 7
-12 15 -12 16 4 10 10 -4 25 -7 33 -7z m74 -92 l0 -101 -21 19 c-28 25 -35 41
-44 91 -6 39 -5 44 18 52 13 5 27 17 30 25 13 33 17 13 17 -86z"/>
<path d="M2265 1625 c5 -34 2 -44 -14 -60 -12 -10 -21 -22 -21 -28 0 -5 16 5
35 22 38 33 54 32 93 -2 12 -11 22 -16 22 -10 0 17 -44 51 -70 55 -15 2 -26
11 -28 23 -2 11 -8 25 -14 30 -7 7 -8 -3 -3 -30z"/>
<path d="M2538 1370 c-27 -17 -48 -35 -48 -40 0 -16 12 -12 60 20 25 16 51 30
58 30 6 0 12 5 12 10 0 18 -35 10 -82 -20z"/>
<path d="M2435 1080 c3 -5 8 -10 11 -10 2 0 4 5 4 10 0 6 -5 10 -11 10 -5 0
-7 -4 -4 -10z"/>
<path d="M2480 1076 c0 -9 40 -13 46 -5 3 5 -6 9 -20 9 -14 0 -26 -2 -26 -4z"/>
<path d="M2155 1040 c-3 -5 -1 -10 4 -10 6 0 11 5 11 10 0 6 -2 10 -4 10 -3 0
-8 -4 -11 -10z"/>
<path d="M2200 1040 c0 -5 5 -10 10 -10 6 0 10 5 10 10 0 6 -4 10 -10 10 -5 0
-10 -4 -10 -10z"/>
<path d="M2397 996 c-4 -10 -1 -13 8 -9 8 3 12 9 9 14 -7 12 -11 11 -17 -5z"/>
<path d="M2060 990 c-9 -6 -10 -10 -3 -10 6 0 15 5 18 10 8 12 4 12 -15 0z"/>
<path d="M2068 963 c6 -2 18 -2 25 0 6 3 1 5 -13 5 -14 0 -19 -2 -12 -5z"/>
<path d="M2118 963 c6 -2 18 -2 25 0 6 3 1 5 -13 5 -14 0 -19 -2 -12 -5z"/>
<path d="M3005 1761 c-2 -5 4 -11 15 -14 11 -3 20 -2 20 3 0 12 -28 21 -35 11z"/>
<path d="M1354 1585 c-7 -18 77 -192 136 -285 23 -36 78 -113 121 -171 l79
-106 -129 -279 c-70 -153 -149 -324 -175 -379 -45 -94 -86 -190 -86 -200 0 -3
4 -5 10 -5 5 0 27 37 49 83 39 79 260 550 324 689 24 54 33 65 44 57 10 -9 13
-7 13 7 0 10 -33 61 -74 114 -121 157 -253 377 -281 468 -7 25 -23 29 -31 7z"/>
<path d="M1720 706 c-26 -69 -88 -522 -75 -554 13 -32 32 28 44 138 7 58 21
155 32 215 28 149 35 225 20 225 -6 0 -16 -11 -21 -24z"/>
</g>
</svg>
